<svg xmlns="http://www.w3.org/2000/svg" viewBox="0 0 512 512" role="img" aria-label="Mi Control de Gastos">
  <rect width="512" height="512" rx="112" fill="#102620"/>
  <path fill="#f7faf8" d="M142 130h228c20 0 36 16 36 36v180c0 20-16 36-36 36H142c-20 0-36-16-36-36V166c0-20 16-36 36-36Z"/>
  <path fill="#15846f" d="M142 160h228c4 0 6 2 6 6v50H136v-50c0-4 2-6 6-6Z"/>
  <circle cx="170" cy="282" r="20" fill="#f2b84b"/>
  <path fill="#102620" d="M218 262h112a18 18 0 0 1 0 36H218a18 18 0 0 1 0-36Zm0 62h72a18 18 0 0 1 0 36h-72a18 18 0 0 1 0-36Z"/>
  <path fill="#15846f" d="M362 314c31 0 56 25 56 56s-25 56-56 56-56-25-56-56 25-56 56-56Z"/>
  <path fill="#fff" d="M371 342v20h19v18h-19v20h-18v-20h-19v-18h19v-20h18Z"/>
</svg>
